<?xml version="1.0" encoding="UTF-8"?>
<svg width="1200pt" height="1200pt" version="1.1" viewBox="0 0 1200 1200" xmlns="http://www.w3.org/2000/svg">
 <path d="m1025 150.04h75c13.801 0 25 11.199 25 25v200c0 13.797-11.199 25-25 25h-900c-13.801 0-25-11.203-25-25v-75h-75c-13.801 0-25-12.602-25-28.125v-168.75c0-15.523 11.199-28.125 25-28.125h900c13.801 0 25 12.602 25 28.125zm0 775h75c13.801 0 25 11.199 25 25v150c0 13.797-11.199 25-25 25l-900-3.125c-13.801 0-25-11.203-25-25v-71.875h-75c-13.801 0-25-12.602-25-28.125v-146.88c0-15.527 11.199-28.125 25-28.125l900 3.125c13.801 0 25 12.598 25 28.125zm-350-400h75c13.801 0 25 11.199 25 25v200c0 13.797-11.199 25-25 25h-550c-13.801 0-25-11.203-25-25v-75h-75c-13.801 0-25-12.602-25-28.125v-168.75c0-15.527 11.199-28.125 25-28.125h550c13.801 0 25 12.598 25 28.125zm-450-225h775c13.801 0 25-12.602 25-28.125v-71.879h50v150h-850zm0 725 775 3.125c13.801 0 25-12.602 25-28.125v-25h50v100l-850-3.125zm0-350h425c13.801 0 25-12.602 25-28.125v-71.875h50v150h-500z" fill-rule="evenodd"/>
</svg>
